<?xml version="1.0" standalone="no"?>
<!DOCTYPE svg PUBLIC "-//W3C//DTD SVG 20010904//EN"
 "http://www.w3.org/TR/2001/REC-SVG-20010904/DTD/svg10.dtd">
<svg version="1.0" xmlns="http://www.w3.org/2000/svg"
 width="316.000000pt" height="341.000000pt" viewBox="0 0 316.000000 341.000000"
 preserveAspectRatio="xMidYMid meet">

<g transform="translate(0.000000,341.000000) scale(0.100000,-0.100000)"
fill="#000000" stroke="none">
<path d="M1598 3124 c-49 -67 -95 -164 -109 -233 -16 -77 -6 -221 21 -306 12
-38 64 -164 115 -280 97 -221 135 -342 135 -435 0 -67 -22 -147 -51 -184 -34
-43 -11 -30 52 31 108 103 165 227 175 383 9 137 -9 201 -136 460 -125 256
-149 332 -159 500 l-6 115 -37 -51z"/>
<path d="M990 2768 c54 -71 80 -144 80 -222 l0 -62 83 -70 82 -70 51 106 52
106 -45 67 c-75 113 -205 197 -303 197 l-40 0 40 -52z"/>
<path d="M2107 2800 c-63 -24 -126 -73 -180 -141 -83 -103 -81 -90 -22 -210
l52 -105 39 34 c21 19 59 51 84 71 l45 36 0 75 c1 86 29 160 85 223 l32 37
-43 0 c-24 -1 -66 -9 -92 -20z"/>
<path d="M1412 2582 c-49 -76 -97 -178 -124 -262 -19 -61 -23 -97 -23 -195 0
-139 20 -213 84 -312 35 -54 157 -183 173 -183 4 0 -2 21 -12 46 -31 72 -69
212 -76 279 -12 113 23 218 103 306 l35 39 -48 112 c-26 62 -55 137 -64 167
l-16 54 -32 -51z"/>
<path d="M665 2521 l-50 -6 42 -19 c60 -26 131 -101 164 -171 16 -34 41 -125
59 -210 51 -249 120 -359 272 -436 52 -26 213 -79 242 -79 6 0 -27 21 -74 48
-106 59 -198 144 -237 219 -64 122 -73 207 -11 107 46 -74 118 -150 188 -197
72 -49 86 -47 50 7 -82 120 -122 315 -95 460 8 42 -8 67 -92 138 -138 116
-282 160 -458 139z"/>
<path d="M2323 2515 c-91 -20 -197 -80 -279 -157 l-71 -67 5 -111 c7 -163 -24
-286 -97 -395 -37 -54 -24 -57 46 -10 73 49 144 123 188 195 20 34 40 59 42
56 9 -9 -16 -95 -41 -145 -50 -98 -113 -157 -252 -236 -43 -25 -74 -45 -67
-45 30 0 195 55 246 83 152 80 216 184 267 432 18 86 44 177 60 212 33 72 98
140 161 168 l44 20 -50 7 c-76 10 -134 8 -202 -7z"/>
<path d="M1406 1523 c-16 -3 -70 -23 -120 -45 -235 -104 -258 -111 -342 -116
-67 -4 -89 -1 -130 17 l-49 22 29 -30 c46 -48 111 -74 186 -73 77 1 130 18
300 100 137 66 185 82 244 82 32 0 37 2 27 14 -10 12 -106 41 -114 35 -1 -1
-15 -4 -31 -6z"/>
<path d="M1695 1521 c-16 -4 -41 -14 -55 -22 -24 -13 -23 -14 35 -20 72 -8
110 -22 233 -82 210 -104 320 -124 417 -74 28 14 61 37 75 52 l24 26 -44 -20
c-56 -25 -154 -27 -231 -5 -30 9 -107 40 -171 70 -104 48 -214 86 -243 83 -5
-1 -23 -4 -40 -8z"/>
<path d="M1270 969 c-41 -17 -60 -40 -60 -75 0 -41 33 -68 108 -90 57 -17 92
-43 92 -69 0 -9 -11 -27 -25 -40 -29 -29 -94 -34 -150 -11 -46 20 -45 5 0 -17
72 -34 169 -14 194 40 28 62 -7 111 -101 138 -96 27 -116 69 -51 104 29 15 67
14 108 -3 20 -9 35 -11 35 -5 0 14 -64 39 -97 38 -15 0 -39 -5 -53 -10z"/>
<path d="M1547 973 l-38 -4 3 -157 c3 -132 5 -157 18 -157 12 0 16 16 18 73
l3 72 65 0 c94 0 133 25 134 88 0 40 -26 67 -77 81 -38 11 -53 11 -126 4z
m140 -48 c28 -32 29 -45 2 -79 -18 -23 -28 -26 -80 -26 l-59 0 0 64 c0 73 5
77 75 71 28 -3 47 -12 62 -30z"/>
<path d="M1860 948 c-39 -89 -106 -289 -99 -294 9 -5 23 24 35 71 9 37 28 46
89 43 l57 -3 22 -55 c14 -34 29 -56 41 -58 12 -3 16 1 13 9 -3 8 -29 80 -58
162 -43 119 -56 147 -71 147 -11 0 -24 -10 -29 -22z m48 -84 c13 -36 21 -68
19 -71 -3 -2 -27 -3 -54 -1 l-50 3 25 68 c14 37 28 67 31 67 3 0 16 -30 29
-66z"/>
<path d="M1132 393 c0 -38 3 -53 5 -35 5 42 32 43 57 1 10 -17 20 -28 23 -25
3 3 -1 16 -10 30 -14 21 -14 26 -2 36 20 16 19 46 -1 54 -9 3 -29 6 -45 6
l-29 0 2 -67z m71 43 c7 -19 -12 -36 -40 -36 -18 0 -23 6 -23 25 0 21 5 25 29
25 16 0 31 -6 34 -14z"/>
<path d="M1268 438 c-2 -13 -1 -42 1 -65 l3 -43 42 2 41 1 -37 4 c-32 4 -38 8
-38 28 0 18 6 25 28 28 l27 4 -27 2 c-23 1 -28 6 -28 25 0 20 6 25 33 29 l32
4 -37 1 c-31 2 -37 -1 -40 -20z"/>
<path d="M1402 400 c1 -58 2 -60 5 -16 l4 49 44 -49 c24 -27 44 -44 44 -39 0
6 -22 35 -49 65 l-49 55 1 -65z"/>
<path d="M1586 453 c-10 -10 -7 -25 4 -18 6 3 10 2 10 -4 0 -5 3 -16 6 -24 4
-11 -2 -17 -23 -20 -28 -4 -28 -4 4 -6 22 -1 34 -7 38 -22 4 -11 9 -18 12 -15
6 6 -26 104 -36 111 -5 2 -11 2 -15 -2z"/>
<path d="M1690 445 c-16 -19 -5 -34 37 -52 27 -11 34 -19 30 -34 -3 -10 -1
-17 4 -13 22 13 8 45 -26 60 -35 14 -46 38 -22 47 7 4 8 6 1 6 -6 1 -17 -6
-24 -14z"/>
<path d="M1820 395 l0 -65 43 2 42 1 -37 4 c-32 4 -38 8 -38 28 0 19 6 24 33
28 l32 4 -32 1 c-28 2 -33 6 -33 26 0 21 5 25 38 29 l37 4 -42 1 -43 2 0 -65z"/>
<path d="M1950 400 c0 -33 4 -60 10 -60 6 0 10 11 10 25 0 34 20 31 53 -7 l29
-33 -18 32 c-16 29 -16 32 -1 48 10 9 17 20 17 24 0 17 -27 31 -62 31 l-38 0
0 -60z m75 25 c0 -14 -8 -21 -27 -23 -24 -3 -28 0 -28 23 0 23 4 26 28 23 19
-2 27 -9 27 -23z"/>
<path d="M1718 333 c7 -3 16 -2 19 1 4 3 -2 6 -13 5 -11 0 -14 -3 -6 -6z"/>
</g>
</svg>
