<?xml version="1.0" standalone="no"?>
<!DOCTYPE svg PUBLIC "-//W3C//DTD SVG 20010904//EN"
 "http://www.w3.org/TR/2001/REC-SVG-20010904/DTD/svg10.dtd">
<svg version="1.0" xmlns="http://www.w3.org/2000/svg"
 width="635.000000pt" height="272.000000pt" viewBox="0 0 635.000000 272.000000"
 preserveAspectRatio="xMidYMid meet">

<g transform="translate(0.000000,272.000000) scale(0.100000,-0.100000)"
fill="#000000" stroke="none">
<path d="M0 1360 l0 -1360 2635 0 2635 0 0 33 c-1 17 -8 61 -16 97 -9 36 -17
80 -18 98 -1 32 2 35 48 53 27 10 68 19 92 20 39 2 43 5 48 34 4 17 17 41 31
53 14 12 25 29 25 37 0 14 8 18 28 13 4 0 5 -10 4 -21 -2 -11 1 -47 7 -81 5
-34 13 -77 16 -96 7 -50 47 -72 121 -69 47 2 58 -1 80 -22 14 -15 27 -41 30
-65 12 -89 8 -84 79 -84 l65 0 0 209 c0 115 3 216 6 225 10 25 43 19 50 -9 3
-14 4 -115 3 -225 l-4 -200 193 0 192 0 -2 1193 -3 1192 -110 7 c-60 5 -121
13 -134 19 -14 6 -72 13 -130 15 -137 7 -151 10 -151 34 0 13 -7 20 -20 20
-13 0 -20 7 -20 20 0 11 -5 20 -11 20 -7 0 -9 10 -7 24 4 17 1 23 -9 19 -9 -4
-13 6 -13 36 0 34 -3 41 -20 41 -13 0 -20 7 -20 19 0 10 -7 21 -15 25 -8 3
-15 12 -15 21 0 13 -270 15 -2584 15 -2058 0 -2586 -3 -2590 -12 -5 -10 -7
-10 -12 -1 -4 9 -69 12 -245 13 l-239 0 0 -1360z m27 1078 c-2 -13 -4 -3 -4
22 0 25 2 35 4 23 2 -13 2 -33 0 -45z m5776 -1053 c-3 -9 -8 -14 -10 -11 -3 3
-2 9 2 15 9 16 15 13 8 -4z m21 -23 c3 -5 -1 -9 -9 -9 -8 0 -12 4 -9 9 3 4 7
8 9 8 2 0 6 -4 9 -8z m25 -119 l143 -6 -6 -251 c-8 -311 -12 -356 -34 -362 -9
-3 -25 -10 -35 -15 -17 -9 -18 -3 -15 104 l3 114 -40 -5 c-51 -6 -58 -12 -14
-12 l34 0 -4 -47 c-4 -40 -5 -44 -12 -23 -6 21 -7 18 -8 -17 -2 -63 -6 -69
-52 -65 -30 3 -46 -1 -62 -16 -23 -20 -111 -62 -131 -62 -7 0 -22 -11 -34 -25
-24 -27 -57 -32 -84 -11 -22 16 -23 27 -3 20 10 -4 15 0 15 15 0 15 -6 21 -24
21 -20 0 -24 -6 -30 -40 -6 -40 -7 -40 -28 -25 -13 8 -41 15 -64 15 -22 0 -68
3 -101 6 -52 6 -61 10 -72 34 -7 17 -11 61 -9 112 l3 83 41 3 41 3 9 222 9
222 60 6 c90 9 341 10 504 2z m-960 -151 c74 -38 90 -63 93 -139 2 -50 -2 -68
-19 -91 l-22 -30 40 -6 c84 -13 134 -76 126 -158 -2 -27 0 -51 5 -54 24 -15
-8 -19 -165 -18 -94 1 -176 2 -181 3 -5 0 -1 11 10 23 17 20 18 21 1 15 -13
-5 -20 0 -27 16 -8 20 -9 21 -10 2 -1 -18 -2 -18 -10 -3 -9 15 -13 15 -50 -3
-22 -11 -40 -24 -40 -29 0 -26 -80 -4 -106 29 -7 9 -20 12 -36 8 -19 -5 -31 1
-57 28 -18 19 -37 35 -42 35 -6 0 -7 5 -4 10 4 6 3 10 -2 9 -17 -4 -66 22 -57
30 25 22 109 35 244 36 80 1 151 4 157 8 6 4 42 8 81 8 87 1 106 12 52 28 -30
9 -61 9 -118 2 -152 -20 -220 -21 -226 -4 -4 11 -14 13 -32 9 -14 -4 -32 -2
-39 4 -9 7 -16 6 -25 -5 -18 -21 -37 -19 -45 6 -4 12 -12 18 -21 15 -10 -4
-14 2 -14 19 0 14 1 26 2 28 6 5 -44 67 -55 67 -7 0 -18 9 -24 19 -16 25 -66
36 -95 20 -20 -11 -22 -11 -10 3 22 27 91 46 187 53 22 2 77 6 122 9 46 3 86
7 90 8 5 1 24 -2 44 -6 23 -5 53 -2 85 8 77 23 132 20 193 -12z m1297 -26
c-10 -8 -15 -51 -19 -166 -6 -168 -15 -204 -68 -271 -22 -29 -34 -35 -53 -32
-14 3 -31 12 -38 21 -21 25 -15 191 11 311 34 156 27 146 110 147 53 1 68 -2
57 -10z m-2091 -263 c-16 -8 -39 -23 -50 -32 -11 -8 -7 -1 9 17 17 17 39 32
50 32 17 -1 16 -4 -9 -17z m-4029 -250 c-6 -79 -16 -124 -16 -77 0 10 -3 52
-6 92 -6 64 -4 72 11 72 16 0 17 -9 11 -87z m83 15 c-3 -80 -7 -98 -20 -98 -5
0 -9 38 -9 85 0 71 3 85 16 85 13 0 15 -12 13 -72z m81 45 c0 -53 -13 -132
-20 -128 -10 6 -23 132 -15 145 13 21 35 10 35 -17z m68 -45 c-2 -46 -7 -73
-15 -76 -10 -3 -13 16 -13 72 0 63 3 76 16 76 13 0 15 -12 12 -72z m72 28 c0
-77 -25 -109 -28 -36 -1 22 -2 43 -3 47 -3 21 2 33 16 33 11 0 15 -12 15 -44z
m62 19 c6 -30 -16 -55 -26 -29 -10 27 -7 54 8 54 7 0 16 -11 18 -25z m95 9 c3
-10 1 -30 -4 -45 -7 -18 -8 -29 -2 -29 6 0 7 -5 3 -11 -3 -6 -10 -7 -14 -2
-10 10 -20 90 -12 97 10 11 23 6 29 -10z m-97 -79 c0 -8 -4 -15 -10 -15 -5 0
-10 7 -10 15 0 8 5 15 10 15 6 0 10 -7 10 -15z m4394 -8 l40 -15 -60 -7 c-44
-5 -70 -3 -95 8 l-34 15 25 11 c29 13 70 9 124 -12z m370 -7 c12 -12 -40 -32
-75 -28 -23 3 -25 6 -18 27 8 21 13 22 47 16 20 -3 41 -11 46 -15z m-321 -27
c-7 -2 -19 -2 -25 0 -7 3 -2 5 12 5 14 0 19 -2 13 -5z m497 -25 c45 -1 54 -3
30 -6 l-35 -5 30 -7 c20 -5 0 -8 -65 -10 -79 -3 -87 -4 -50 -10 45 -7 44 -7
-17 -8 -59 -2 -85 11 -45 21 13 4 12 5 -5 6 -16 1 -21 5 -16 17 5 13 16 15 57
10 28 -3 80 -7 116 -8z m511 -28 c4 -19 5 -37 2 -40 -2 -3 -59 -8 -126 -11
l-122 -5 128 -2 c72 -1 127 -6 127 -12 0 -10 -46 -19 -100 -19 -19 0 -54 -3
-78 -7 -47 -7 -135 14 -129 31 2 5 11 9 21 7 9 -2 16 2 16 8 0 5 -10 10 -22
10 -13 0 -30 5 -38 10 -12 8 -11 11 8 16 18 5 20 9 10 15 -8 5 9 9 44 9 31 0
59 4 63 10 3 5 12 7 19 4 8 -3 17 0 21 6 4 7 33 10 78 8 l71 -3 7 -35z m211
-60 c4 -41 12 -85 18 -98 5 -13 10 -36 10 -53 0 -16 9 -39 20 -51 28 -30 26
-58 -3 -58 -15 0 -29 9 -37 25 -7 13 -17 22 -22 19 -4 -3 -8 2 -8 11 0 8 -6
18 -14 21 -18 7 -42 81 -51 156 -7 60 0 102 15 93 5 -3 12 0 15 5 4 6 17 10
28 8 20 -3 23 -12 29 -78z"/>
<path d="M4931 694 c-1 -7 -21 -18 -46 -25 -25 -7 -45 -16 -45 -19 0 -3 26 -4
57 -2 32 2 88 -1 126 -6 37 -5 67 -5 67 -2 0 9 -52 20 -96 20 -24 0 -34 5 -34
16 0 8 -4 13 -9 10 -5 -4 -12 0 -14 6 -4 8 -6 9 -6 2z"/>
</g>
</svg>
